# xmcd
# Copyright (C) 1995-1998 Ti Kan
#
# Track frame offsets:
#       150
#       10740
#       26850
#       43493
#       53442
#       69025
#       83685
#       100530
#       113607
#       124629
#       136339
#       155387
#
# Disc length: 2296 seconds
#
# Revision: 0
# Processed by: cddbd v1.5.2PL0 Copyright (c) Steve Scherf et al.
# Submitted via: CD-Transfer v1.0
#
DISCID=8808f60c
DTITLE=Viera Blech - 
DYEAR=1900
DGENRE=
TTITLE0=So Schön Ist Blasmusik
TTITLE1=Weber Marsch
TTITLE2=Made In Tirol
TTITLE3=Pradl Polka
TTITLE4=Schiedboden Boarischer
TTITLE5=Algunder Festmarsch
TTITLE6=Mnoschil Polka
TTITLE7=Grod Koan Gnett (Jazzwalzer)
TTITLE8=Kuratko
TTITLE9=Suppen Maria
TTITLE10=Silent Water (Modern)
TTITLE11=Viera Blech - Polka
EXTD=
EXTT0=
EXTT1=
EXTT2=
EXTT3=
EXTT4=
EXTT5=
EXTT6=
EXTT7=
EXTT8=
EXTT9=
EXTT10=
EXTT11=
PLAYORDER=
